<?xml version="1.0" encoding="utf-8"?>
<!-- Generator: Adobe Illustrator 22.1.0, SVG Export Plug-In . SVG Version: 6.00 Build 0)  -->
<svg version="1.1" id="Layer_2" xmlns="http://www.w3.org/2000/svg" xmlns:xlink="http://www.w3.org/1999/xlink" x="0px" y="0px"
	 viewBox="0 0 9496.2 2000" style="enable-background:new 0 0 9496.2 2000;" xml:space="preserve">
<style type="text/css">
	.st0{fill-rule:evenodd;clip-rule:evenodd;fill:#A2A9B3;}
	.st1{fill-rule:evenodd;clip-rule:evenodd;fill:#7E8795;}
	.st2{fill-rule:evenodd;clip-rule:evenodd;fill:#509747;}
	.st3{fill:#509747;}
	.st4{fill:#7E8795;}
	.st5{display:none;}
	.st6{display:inline;fill:#A35162;}
</style>
<g id="icon">
	<path class="st0" d="M1055.7,462.5c328.8,0,595.4,266.6,595.4,595.4c0,328.8-266.6,595.4-595.4,595.4c-60.7,0-119.2-9.1-174.4-26
		c68.6-35.5,135.6-74.1,200.4-113.7c173.8-106,341.1-225.1,502.7-348.8l25.2-19.3l-141.3-345l-42.7,30.2
		c-40,28.4-80.2,56.6-120.5,84.7c-49.5-86.5-142.7-144.8-249.5-144.8c-158.7,0-287.4,128.7-287.4,287.4
		c0,65.2,21.7,125.3,58.3,173.5c-26.3,15.9-52.7,31.5-79.3,46.8c-56.9,32.7-118.3,66.6-179.3,91.1c-3.5,1.4-9.3,3.6-16.1,6.1
		c-58.1-91.9-91.7-200.8-91.7-317.5C460.3,729.1,726.9,462.5,1055.7,462.5z"/>
	<path class="st1" d="M1036.4,1651.8c-26.7-0.9-53.6-3.5-80.7-8.2c-24.9-4.3-49.3-10.1-72.9-17.3
		c229.2-117.5,458.8-278.5,656.2-427.8l34.4,84.1C1370.7,1437.9,1191.7,1559.5,1036.4,1651.8z"/>
	<path class="st2" d="M1559.2,1131.8l-109.5-267.3C605,1462.9,394,1517.6,488,1342.5c-21-41.8-37.5-86.1-48.9-132
		C-7.7,1798.4,362.4,2047.9,1559.2,1131.8L1559.2,1131.8z M1315.2,477.9c88.2-76.3,175.7-148.9,258.6-213.4
		C1466.2,329.6,1365.4,395,1271,460.2C1286,465.6,1300.8,471.5,1315.2,477.9z"/>
</g>
<g id="lines">
</g>
<g id="wordmark">
	<path class="st3" d="M2628.8,878l79.8-99.4c-26.4-26-56.3-48.2-89.2-66.9c-33.1-18.5-68.2-33-105.2-42.8
		c-37-10-74.8-15.2-113.1-15.2c-48,0.2-93.5,6.9-136.2,20.2c-42.6,13.3-81.7,32.2-117,56.7c-35.3,24.7-65.7,53.8-91.3,87.5
		c-25.8,33.7-45.7,70.9-59.7,112c-13.9,40.9-21,84.4-21.2,130.6c0.2,46.6,7.1,90.6,21,132c13.9,41.4,33.5,79.2,59,113.3
		c25.2,34.1,55.5,63.6,90.4,88.3c34.9,24.9,73.4,44.1,115.8,57.6c42.2,13.5,87.1,20.2,134.7,20.4c38.3-0.2,76.3-5.6,113.9-16.6
		c37.6-10.8,73.2-26.2,107.1-45.9c33.9-19.8,64.7-43.4,92.3-70.5l-80.9-90.2c-20.6,19.7-43.2,36.8-67.6,51.1
		c-24.7,14.3-50.3,25.4-77.1,33.1c-26.6,7.7-53.6,11.8-80.7,11.8c-40.7-0.2-78.6-7.7-113.5-22.2c-34.9-14.6-65.5-34.9-91.7-60.7
		c-26.2-26-46.8-56.3-61.5-90.8c-14.6-34.5-22.2-71.9-22.4-112c0.2-40.1,7.7-77.5,22.4-111.8c14.6-34.3,35.3-64.6,61.5-90.4
		c26.2-25.8,56.8-45.9,91.7-60.3c34.9-14.5,72.8-21.8,113.5-22c27.6,0,54.7,4.2,81.9,12.5c27,8.3,52.6,20,77.1,35.5
		C2586.8,838.3,2609,856.6,2628.8,878z"/>
	<polygon class="st3" points="2850.5,658.2 2850.5,1467.5 3337.2,1467.5 3337.2,1343.8 2986.9,1343.8 2986.9,658.2 	"/>
	<path class="st3" d="M3829.7,652.7l-0.6,0v122.6l1.7,0c39.9,0.2,77.1,7.5,111.8,22c34.7,14.5,65.3,34.7,91.5,60.5
		c26.4,25.8,47,56.1,61.9,90.6c15,34.7,22.5,72.1,22.7,112.5c-0.2,40.5-7.7,78-22.7,112.7c-14.8,34.9-35.5,65.3-61.9,91.5
		c-26.2,26.2-56.8,46.6-91.5,61.3c-34.7,14.6-71.9,22.2-111.8,22.4l-1.7,0v122.6l0.6,0c48.6-0.2,94.4-6.9,137.4-20.4
		c43.2-13.5,82.5-32.8,117.9-57.4c35.6-24.9,66.3-54.1,92.3-88.3c25.8-33.9,45.9-71.7,59.9-112.9c14.1-41.2,21.2-85,21.4-131.4
		c-0.2-46.4-7.3-90.2-21.4-131.2c-14.1-41-34.1-78.6-59.9-112.3c-26-33.7-56.6-63-92.3-87.5c-35.5-24.7-74.8-43.5-117.9-56.8
		C3924.2,659.7,3878.3,652.9,3829.7,652.7z M3829.2,652.7c-48.3,0.2-93.8,7-136.8,20c-43.2,13.3-82.5,32.2-117.9,56.7
		c-35.6,24.5-66.3,53.6-92.3,87.3c-25.8,33.9-45.9,71.3-59.9,112.5c-14.1,41-21.2,85-21.4,131.6c0.2,46.4,7.3,90.2,21.4,131.4
		c14.1,41.2,34.1,79,59.9,112.9c26,34.1,56.7,63.4,92.3,88.3c35.5,24.7,74.8,43.9,117.9,57.4c43,13.4,88.5,20.2,136.8,20.4v-122.6
		c-39.2-0.4-76-7.9-110.6-22.3c-35.1-14.6-65.9-35.1-92.7-61.3c-26.8-26.2-47.8-56.7-63-91.5c-15.2-34.7-23.1-72.3-23.3-112.7
		c0.2-40.5,7.9-77.8,23.1-112.5c15-34.5,36-64.7,62.6-90.6c26.8-25.8,57.6-46.1,92.7-60.5c34.6-14.2,71.7-21.6,111.2-22V652.7z"/>
	<path class="st3" d="M4524.6,1130.2v-474h-136.4v474c0.4,70.9,14.6,131.6,42.8,182.5c28.3,50.9,68.8,89.8,121.4,117.2
		c52.4,27.4,115.2,41,188.5,41.4c73.2-0.4,135.8-14.1,188.3-41.4c52.4-27.4,92.5-66.3,120.6-117.2c28.1-50.9,42.4-111.6,42.6-182.5
		v-474h-136.4v474c-0.2,46.1-8.9,85.4-26.2,117.7c-17.1,32.6-41.8,57.4-73.6,74.8c-32,17.1-69.9,25.8-114.1,26
		c-44.5-0.2-83.1-8.9-115.4-26.4c-32.4-17.3-57.4-42.2-75.2-74.8C4533.7,1215,4524.8,1175.9,4524.6,1130.2z"/>
	<path class="st3" d="M5607.3,1464.3c43.9-4,84.8-13.3,123.1-28.3c51.3-19.8,95.8-48,133.5-84.4c37.8-36.2,66.9-78.8,87.7-128.1
		c20.6-49.1,31.2-103.1,31.4-161.7c-0.2-59-10.6-113.1-31.2-162.2c-20.6-49.1-49.5-91.9-86.9-128.1c-37.6-36.2-81.7-64.2-132.6-84
		c-38.8-15.1-80.4-24.6-125.1-28.4v124c23.2,3.3,45.4,9.2,66.5,17.8c34.3,13.9,64.2,33.3,90,58.6c25.6,25.2,45.7,55.1,59.9,89.6
		c14.3,34.5,21.6,72.5,21.8,114.1c-0.2,41.2-7.3,79-21.2,113.1c-13.9,34.3-33.5,64-58.6,89c-25,24.9-54.3,44.3-88.1,58
		c-22.1,9-45.6,15.1-70.3,18.3V1464.3z M5564.5,657.2h-331.8v809.3H5561c15.8-0.1,31.2-0.8,46.2-2.2v-122.9
		c-12.8,1.6-25.9,2.5-39.3,2.5h-198.9V779.8h193.1c15.5,0.1,30.5,1.1,45.1,3.2V659C5593.3,657.9,5579,657.2,5564.5,657.2z"/>
	<path class="st4" d="M6740.9,877l79.8-99.4c-26.4-26-56.3-48.2-89.2-66.9c-33.1-18.5-68.2-33-105.2-42.8
		c-37-10-74.8-15.2-113.1-15.2c-48,0.2-93.5,6.9-136.2,20.2c-42.6,13.3-81.7,32.2-117,56.7c-35.3,24.7-65.7,53.8-91.3,87.5
		c-25.8,33.7-45.7,70.9-59.7,112c-13.9,40.9-21,84.4-21.2,130.6c0.2,46.6,7.1,90.6,21,132c13.9,41.4,33.5,79.2,59,113.3
		c25.2,34.1,55.5,63.6,90.4,88.3c34.9,24.9,73.4,44.1,115.8,57.6c42.2,13.5,87.1,20.2,134.7,20.4c38.3-0.2,76.3-5.6,113.9-16.6
		c37.6-10.8,73.2-26.2,107.1-45.9c33.9-19.8,64.7-43.4,92.3-70.5l-80.9-90.2c-20.6,19.7-43.2,36.8-67.6,51.1
		c-24.7,14.3-50.3,25.4-77.1,33.1c-26.6,7.7-53.6,11.8-80.7,11.8c-40.7-0.2-78.6-7.7-113.5-22.2c-34.9-14.6-65.5-34.9-91.7-60.7
		c-26.2-26-46.8-56.3-61.5-90.8c-14.6-34.5-22.2-71.9-22.4-112c0.2-40.1,7.7-77.5,22.4-111.8c14.6-34.3,35.3-64.6,61.5-90.4
		c26.2-25.8,56.8-45.9,91.7-60.3c34.9-14.5,72.8-21.8,113.5-22c27.6,0,54.7,4.2,81.9,12.5c27,8.3,52.6,20,77.1,35.5
		C6698.9,837.3,6721,855.6,6740.9,877z"/>
	<path class="st4" d="M7315.4,652.7l-0.6,0v122.6l1.7,0c39.9,0.2,77.1,7.5,111.8,22c34.7,14.5,65.3,34.7,91.5,60.5
		c26.4,25.8,47,56.1,61.9,90.6c15,34.7,22.5,72.1,22.7,112.5c-0.2,40.5-7.7,78-22.7,112.7c-14.8,34.9-35.5,65.3-61.9,91.5
		c-26.2,26.2-56.8,46.6-91.5,61.3c-34.7,14.6-71.9,22.2-111.8,22.4l-1.7,0v122.6l0.6,0c48.6-0.2,94.4-6.9,137.4-20.4
		c43.2-13.5,82.5-32.8,117.9-57.4c35.6-24.9,66.3-54.1,92.3-88.3c25.8-33.9,45.9-71.7,59.9-112.9c14.1-41.2,21.2-85,21.4-131.4
		c-0.2-46.4-7.3-90.2-21.4-131.2c-14.1-41-34.1-78.6-59.9-112.3c-26-33.7-56.6-63-92.3-87.5c-35.5-24.7-74.8-43.5-117.9-56.8
		C7409.8,659.7,7364,652.9,7315.4,652.7z M7314.8,652.7c-48.3,0.2-93.8,7-136.8,20c-43.2,13.3-82.5,32.2-117.9,56.7
		c-35.6,24.5-66.3,53.6-92.3,87.3c-25.8,33.9-45.9,71.3-59.9,112.5c-14.1,41-21.2,85-21.4,131.6c0.2,46.4,7.3,90.2,21.4,131.4
		c14.1,41.2,34.1,79,59.9,112.9c26,34.1,56.7,63.4,92.3,88.3c35.5,24.7,74.8,43.9,117.9,57.4c43,13.4,88.5,20.2,136.8,20.4v-122.6
		c-39.2-0.4-76-7.9-110.6-22.3c-35.1-14.6-65.9-35.1-92.7-61.3c-26.8-26.2-47.8-56.7-63-91.5c-15.2-34.7-23.1-72.3-23.3-112.7
		c0.2-40.5,7.9-77.8,23.1-112.5c15-34.5,36-64.7,62.6-90.6c26.8-25.8,57.6-46.1,92.7-60.5c34.6-14.2,71.7-21.6,111.2-22V652.7z"/>
	<polygon class="st4" points="7885,657.2 7885,1466.5 8021.5,1466.5 8021.5,886.1 8452.7,1466.5 8586.8,1466.5 8586.8,657.2 
		8452.7,657.2 8452.7,1238.8 8019.2,657.2 	"/>
	<polygon class="st4" points="8727.7,657.2 8727.7,1466.5 9319.7,1465.5 9319.7,1343 8864.2,1344 8864.2,1120.8 9259.6,1119.8 
		9259.6,998.4 8864.2,999.4 8864.2,779.8 9305.8,778.8 9305.8,656.2 	"/>
</g>
<g class="st5">
	<rect x="4258.7" y="1057.2" class="st6" width="139.9" height="7.7"/>
	<rect x="5091.3" y="1057.2" class="st6" width="139.9" height="7.7"/>
	
		<rect x="6811.4" y="1298.1" transform="matrix(0.866 -0.5 0.5 0.866 270.9464 3615.0781)" class="st6" width="139.9" height="7.7"/>
	<rect x="7745.4" y="1057.5" class="st6" width="139.9" height="7.7"/>
	<rect x="8586.8" y="1057.5" class="st6" width="139.9" height="7.7"/>
	
		<rect x="3328.4" y="1304.9" transform="matrix(0.866 -0.5 0.5 0.866 -199.0802 1874.4847)" class="st6" width="139.9" height="7.7"/>
	<rect x="2709.7" y="1334.2" class="st6" width="139.9" height="7.7"/>
</g>
</svg>
